<?xml version="1.0" standalone="no"?>
<!DOCTYPE svg PUBLIC "-//W3C//DTD SVG 20010904//EN"
 "http://www.w3.org/TR/2001/REC-SVG-20010904/DTD/svg10.dtd">
<svg version="1.0" xmlns="http://www.w3.org/2000/svg"
 width="1024.000000pt" height="1536.000000pt" viewBox="0 0 1024.000000 1536.000000"
 preserveAspectRatio="xMidYMid meet">

<g transform="translate(0.000000,1536.000000) scale(0.100000,-0.100000)"
fill="#000000" stroke="none">
<path d="M4055 12130 l-870 -5 -65 -24 c-215 -76 -361 -203 -455 -396 -82
-167 -75 224 -75 -4108 0 -3739 1 -3875 19 -3962 51 -246 238 -472 460 -556
139 -53 11 -50 2051 -45 2128 5 1932 -3 2109 83 79 37 108 59 181 131 98 98
154 186 197 307 l28 80 5 2355 c3 1295 5 3066 5 3935 -1 1463 -2 1585 -18
1643 -70 258 -259 453 -514 532 -64 20 -101 21 -918 30 -467 6 -944 9 -1060 8
-115 -2 -601 -5 -1080 -8z m-203 -327 c8 -10 19 -50 25 -89 21 -140 112 -274
228 -336 99 -53 110 -53 1056 -52 l875 2 54 23 c81 34 119 60 173 118 64 68
107 163 114 252 4 42 12 74 20 81 11 9 84 11 276 10 310 -3 334 -6 412 -45
117 -58 215 -178 245 -298 8 -32 10 -1111 8 -3904 l-3 -3860 -37 -77 c-43 -91
-101 -157 -182 -210 -110 -71 -42 -67 -1250 -75 -600 -5 -1426 -7 -1836 -6
-724 2 -747 2 -804 22 -160 56 -288 197 -326 360 -10 43 -11 804 -5 3890 7
3608 8 3839 25 3892 36 116 122 214 237 271 82 40 129 45 429 47 228 1 252 -1
266 -16z"/>
<path d="M4373 3747 c-16 -13 -23 -29 -23 -53 0 -47 14 -70 49 -82 39 -14
1427 -5 1454 9 47 26 51 116 5 140 -13 7 -254 9 -740 7 -680 -3 -723 -4 -745
-21z"/>
</g>
</svg>
